<?xml version="1.0" encoding="utf-8"?>
<!-- Generator: Adobe Illustrator 22.1.0, SVG Export Plug-In . SVG Version: 6.00 Build 0)  -->
<svg version="1.1" id="Layer_1" xmlns="http://www.w3.org/2000/svg" xmlns:xlink="http://www.w3.org/1999/xlink" x="0px" y="0px"
	 viewBox="0 0 512 512" style="enable-background:new 0 0 512 512;" xml:space="preserve">
<style type="text/css">
	.st0{fill:url(#SVGID_1_);}
	.st1{fill:url(#SVGID_2_);}
	.st2{fill:#22577A;}
</style>
<g>
	<g>
		<g>
			<linearGradient id="SVGID_1_" gradientUnits="userSpaceOnUse" x1="420.3353" y1="451.0014" x2="91.0327" y2="121.6989">
				<stop  offset="2.165098e-07" style="stop-color:#57CC99"/>
				<stop  offset="1" style="stop-color:#22577A"/>
			</linearGradient>
			<path class="st0" d="M250.3,0v0.9c-25.7,1.3-49.7,11.8-68.5,30c-20.9,20.3-32.4,47.4-32.4,76.5v0.6c0,32.1-12.7,61.9-35.7,84
				c-40.2,38.5-62.3,91.3-62.3,148.5c0,54.3,21.1,99.1,61,129.5c36.1,27.5,85.7,42.1,143.3,42.1c57.7,0,107.3-14.5,143.5-42.1
				c40.1-30.4,61.3-75.2,61.3-129.5c0-54.4-22.9-108.3-62.8-147.8c-22.8-22.6-35.3-52-35.3-83c0-53.5-39.1-99.1-89.5-107.5V0"/>
		</g>
	</g>
	<g>
		<g>
			<linearGradient id="SVGID_2_" gradientUnits="userSpaceOnUse" x1="407.2744" y1="434.5026" x2="104.1544" y2="131.3827">
				<stop  offset="2.165098e-07" style="stop-color:#38A3A5"/>
				<stop  offset="1" style="stop-color:#80ED99"/>
			</linearGradient>
			<path class="st1" d="M250.9,17.5v0.8c-23.1,1.2-44.8,11-61.6,28c-18.8,18.9-29.1,44.2-29.1,71.2v0.5c0,29.9-11.4,57.7-32.2,78.2
				c-36.2,35.9-56.1,85-56.1,138.4c0,50.6,19,92.3,54.9,120.6c32.5,25.6,77.1,39.2,129,39.2c51.9,0,96.6-13.5,129.2-39.2
				c36.1-28.3,55.2-70.1,55.2-120.6c0-50.7-20.6-100.9-56.5-137.7c-20.5-21-31.8-48.5-31.8-77.3c0-49.8-35.2-92.3-80.6-100.2v-2"/>
		</g>
	</g>
	<path class="st2" d="M303.7,253.2c5.9,5.9,5.9,15.4,0,21.2c-5.9,5.9-15.4,5.9-21.2,0c-5.9-5.9-16.5-26-10.6-31.8
		C277.7,236.7,297.8,247.3,303.7,253.2z"/>
	<path class="st2" d="M217.5,274.4c-5.9,5.9-15.4,5.9-21.2,0c-5.9-5.9-5.9-15.4,0-21.2c5.9-5.9,26-16.5,31.8-10.6
		S223.4,268.6,217.5,274.4z"/>
</g>
</svg>
